<svg width="18" height="18" viewBox="0 0 18 18" fill="none" xmlns="http://www.w3.org/2000/svg">
<path d="M4.89514 1.85938C7.27996 0.49658 10.063 0.413994 12.7887 1.81446L13.1627 2.01661C16.8306 4.09949 18.2798 8.00277 17.192 12.0781L17.0748 12.4854C16.6766 13.78 15.9046 15.0795 14.8512 15.9951L14.6373 16.1729C13.4554 17.1091 11.9209 17.5793 10.2418 17.0049V17.0039C9.17087 16.6377 8.46466 16.0722 8.01721 15.377L7.93127 15.2363C7.55754 14.5925 7.42025 13.8973 7.3551 13.2793L7.33069 13.0205C7.31446 12.8288 7.30345 12.6199 7.29163 12.4307V12.4287C7.28461 12.2964 7.27692 12.1721 7.26819 12.0654V12.0625C7.25333 11.8427 7.23443 11.6543 7.20569 11.4912L7.17346 11.3359C7.12683 11.1421 7.06771 11.0247 7.00647 10.9492L7.00549 10.9483C6.96623 10.8992 6.91161 10.8499 6.82092 10.8086L6.71741 10.7705C6.23579 10.6236 5.92074 10.6568 5.68225 10.7334H5.68127C5.45932 10.8029 5.27949 10.91 5.03479 11.0586L5.03577 11.0596L4.83557 11.1807C4.5536 11.3466 4.17557 11.5488 3.6969 11.5772L3.48596 11.5781C2.98343 11.5536 2.48268 11.3366 1.94592 10.9404L1.7135 10.7598C1.0773 10.2412 0.782798 9.54239 0.716431 8.80958L0.701782 8.49415C0.698631 7.66651 0.957588 6.78977 1.33459 5.97462L1.48206 5.67188C2.25061 4.16113 3.49333 2.71402 4.66565 1.99513L4.89514 1.85938ZM12.149 3.0586C9.75857 1.83027 7.41094 1.96161 5.41077 3.18067L5.39709 3.18946C4.49028 3.74461 3.41031 4.97204 2.73401 6.29786L2.60413 6.56446C2.27648 7.27072 2.10032 7.93776 2.10217 8.48927L2.11096 8.68165C2.14893 9.11564 2.3111 9.44052 2.59827 9.67481L2.78088 9.81642C3.18389 10.1127 3.42223 10.1744 3.5553 10.1807L3.66663 10.1738C3.74333 10.1617 3.82819 10.1324 3.93811 10.0772L4.12366 9.97364L4.26917 9.88673C4.51614 9.73437 4.85777 9.52634 5.25745 9.39845L5.45862 9.34278C5.9364 9.22965 6.48005 9.23364 7.12659 9.43165H7.12561C7.45765 9.52642 7.75769 9.70733 7.99573 9.95509L8.09436 10.0654L8.09827 10.0713L8.24573 10.2871C8.38096 10.5101 8.4798 10.7539 8.53577 11.0098L8.58264 11.2471C8.62497 11.4843 8.65276 11.724 8.66565 11.9649L8.69104 12.377L8.72522 12.9053L8.77502 13.3604C8.83703 13.7988 8.94185 14.1905 9.14026 14.5332H9.14124C9.39312 14.9656 9.83158 15.3843 10.6959 15.6807L10.9088 15.7461C11.9671 16.0324 12.9369 15.7339 13.7682 15.0762L13.9352 14.9375C14.7601 14.2188 15.403 13.1601 15.7369 12.0742L15.8385 11.7217C16.7793 8.20715 15.5403 4.97341 12.4625 3.22853L12.149 3.0586ZM11.4996 12.0498C11.7515 12.0498 11.9934 12.1501 12.1715 12.3281C12.3497 12.5063 12.4498 12.7481 12.4498 13C12.4498 13.1247 12.4253 13.2481 12.3776 13.3633C12.3298 13.4785 12.2597 13.5837 12.1715 13.6719C12.0834 13.76 11.979 13.8302 11.8639 13.8779C11.7486 13.9257 11.6244 13.9502 11.4996 13.9502C11.375 13.9502 11.2515 13.9256 11.1364 13.8779C11.0212 13.8303 10.9169 13.76 10.8287 13.6719C10.7405 13.5837 10.6704 13.4785 10.6227 13.3633C10.575 13.2481 10.5504 13.1247 10.5504 13C10.5504 12.7481 10.6506 12.5063 10.8287 12.3281C11.0068 12.1502 11.248 12.0499 11.4996 12.0498ZM13.4996 10.0498C13.7515 10.0498 13.9934 10.1501 14.1715 10.3281C14.3497 10.5063 14.4498 10.7481 14.4498 11C14.4498 11.252 14.3497 11.4937 14.1715 11.6719C13.9934 11.8499 13.7515 11.9502 13.4996 11.9502C13.248 11.9501 13.0068 11.8498 12.8287 11.6719C12.6506 11.4937 12.5504 11.252 12.5504 11C12.5504 10.7481 12.6506 10.5063 12.8287 10.3281C13.0068 10.1502 13.248 10.0499 13.4996 10.0498ZM13.4996 7.04981C13.7515 7.04981 13.9934 7.15009 14.1715 7.32813C14.3497 7.50629 14.4498 7.74805 14.4498 8.00001C14.4498 8.25196 14.3497 8.49373 14.1715 8.67188C13.9934 8.84992 13.7515 8.9502 13.4996 8.9502C13.248 8.95011 13.0068 8.84976 12.8287 8.67188C12.6506 8.49373 12.5504 8.25196 12.5504 8.00001C12.5504 7.74805 12.6506 7.50629 12.8287 7.32813C13.0068 7.15025 13.248 7.04991 13.4996 7.04981ZM11.7496 4.79981C12.0015 4.79981 12.2434 4.90009 12.4215 5.07813C12.5997 5.25629 12.6998 5.49805 12.6998 5.75001C12.6998 6.00196 12.5997 6.24373 12.4215 6.42188C12.2434 6.59992 12.0015 6.7002 11.7496 6.7002C11.498 6.70011 11.2568 6.59976 11.0787 6.42188C10.9006 6.24373 10.8004 6.00196 10.8004 5.75001C10.8004 5.49805 10.9006 5.25629 11.0787 5.07813C11.2568 4.90025 11.498 4.79991 11.7496 4.79981ZM8.74963 3.79981C9.00151 3.79981 9.24337 3.90009 9.42151 4.07813C9.59967 4.25629 9.69983 4.49805 9.69983 4.75001C9.69983 5.00196 9.59967 5.24373 9.42151 5.42188C9.24337 5.59992 9.0015 5.7002 8.74963 5.7002C8.49796 5.70011 8.25678 5.59976 8.07874 5.42188C7.90058 5.24373 7.80042 5.00196 7.80042 4.75001C7.80042 4.49805 7.90058 4.25629 8.07874 4.07813C8.25678 3.90025 8.49795 3.79991 8.74963 3.79981Z" fill="currentColor" stroke="currentColor" stroke-width="0.4"/>
</svg>

