<svg width="73" height="73" viewBox="0 0 73 73" fill="none" xmlns="http://www.w3.org/2000/svg">
<path d="M36.5 4.5625C34.6849 4.5625 32.9442 5.28354 31.6607 6.56699C30.3773 7.85044 29.6562 9.59118 29.6562 11.4062C29.6562 13.2213 30.3773 14.9621 31.6607 16.2455C32.9442 17.529 34.6849 18.25 36.5 18.25C38.3151 18.25 40.0558 17.529 41.3393 16.2455C42.6227 14.9621 43.3438 13.2213 43.3438 11.4062C43.3438 9.59118 42.6227 7.85044 41.3393 6.56699C40.0558 5.28354 38.3151 4.5625 36.5 4.5625ZM25.0938 11.4062C25.0938 8.38112 26.2955 5.4799 28.4346 3.34081C30.5737 1.20173 33.4749 0 36.5 0C39.5251 0 42.4264 1.20173 44.5654 3.34081C46.7045 5.4799 47.9062 8.38112 47.9062 11.4062C47.9062 14.4314 46.7045 17.3326 44.5654 19.4717C42.4264 21.6108 39.5251 22.8125 36.5 22.8125C33.4749 22.8125 30.5737 21.6108 28.4346 19.4717C26.2955 17.3326 25.0938 14.4314 25.0938 11.4062ZM61.5938 9.125C60.3837 9.125 59.2232 9.60569 58.3676 10.4613C57.5119 11.317 57.0312 12.4774 57.0312 13.6875C57.0312 14.8976 57.5119 16.058 58.3676 16.9137C59.2232 17.7693 60.3837 18.25 61.5938 18.25C62.8038 18.25 63.9643 17.7693 64.8199 16.9137C65.6756 16.058 66.1562 14.8976 66.1562 13.6875C66.1562 12.4774 65.6756 11.317 64.8199 10.4613C63.9643 9.60569 62.8038 9.125 61.5938 9.125ZM52.4688 13.6875C52.4688 11.2674 53.4301 8.94642 55.1414 7.23515C56.8527 5.52388 59.1736 4.5625 61.5938 4.5625C64.0138 4.5625 66.3348 5.52388 68.0461 7.23515C69.7574 8.94642 70.7188 11.2674 70.7188 13.6875C70.7188 16.1076 69.7574 18.4286 68.0461 20.1399C66.3348 21.8511 64.0138 22.8125 61.5938 22.8125C59.1736 22.8125 56.8527 21.8511 55.1414 20.1399C53.4301 18.4286 52.4688 16.1076 52.4688 13.6875ZM6.84375 13.6875C6.84375 12.4774 7.32444 11.317 8.18008 10.4613C9.03571 9.60569 10.1962 9.125 11.4062 9.125C12.6163 9.125 13.7768 9.60569 14.6324 10.4613C15.4881 11.317 15.9688 12.4774 15.9688 13.6875C15.9688 14.8976 15.4881 16.058 14.6324 16.9137C13.7768 17.7693 12.6163 18.25 11.4062 18.25C10.1962 18.25 9.03571 17.7693 8.18008 16.9137C7.32444 16.058 6.84375 14.8976 6.84375 13.6875ZM11.4062 4.5625C8.98615 4.5625 6.66517 5.52388 4.9539 7.23515C3.24263 8.94642 2.28125 11.2674 2.28125 13.6875C2.28125 16.1076 3.24263 18.4286 4.9539 20.1399C6.66517 21.8511 8.98615 22.8125 11.4062 22.8125C13.8264 22.8125 16.1473 21.8511 17.8586 20.1399C19.5699 18.4286 20.5312 16.1076 20.5312 13.6875C20.5312 11.2674 19.5699 8.94642 17.8586 7.23515C16.1473 5.52388 13.8264 4.5625 11.4062 4.5625ZM14.1438 59.3034C12.9084 59.3652 11.6733 59.1753 10.5136 58.745C9.35394 58.3148 8.29383 57.6533 7.3977 56.8007C6.50157 55.9481 5.78814 54.9222 5.30075 53.7853C4.81336 52.6485 4.56219 51.4244 4.5625 50.1875V33.0781C4.5625 32.7756 4.68267 32.4855 4.89658 32.2716C5.11049 32.0577 5.40061 31.9375 5.70312 31.9375H13.7514C13.9339 30.2631 14.527 28.7073 15.4167 27.375H5.70312C2.555 27.375 8.13861e-08 29.93 8.13861e-08 33.0781V50.1875C-0.000212913 52.1408 0.417645 54.0715 1.2255 55.8499C2.03335 57.6283 3.21248 59.2132 4.68366 60.4981C6.15484 61.783 7.88399 62.7382 9.75493 63.2994C11.6259 63.8606 13.5952 64.0149 15.5307 63.7518C14.9167 62.3206 14.4519 60.8299 14.1438 59.3034ZM57.4693 63.7518C59.4048 64.0149 61.3741 63.8606 63.2451 63.2994C65.116 62.7382 66.8452 61.783 68.3163 60.4981C69.7875 59.2132 70.9667 57.6283 71.7745 55.8499C72.5824 54.0715 73.0002 52.1408 73 50.1875V33.0781C73 29.93 70.445 27.375 67.2969 27.375H57.5833C58.4776 28.7073 59.0661 30.2631 59.2486 31.9375H67.2969C67.5994 31.9375 67.8895 32.0577 68.1034 32.2716C68.3173 32.4855 68.4375 32.7756 68.4375 33.0781V50.1875C68.4378 51.4244 68.1866 52.6485 67.6992 53.7853C67.2119 54.9222 66.4984 55.9481 65.6023 56.8007C64.7062 57.6533 63.6461 58.3148 62.4864 58.745C61.3267 59.1753 60.0916 59.3652 58.8563 59.3034C58.548 60.8299 58.0832 62.3206 57.4693 63.7518ZM23.9531 27.375C20.805 27.375 18.25 29.93 18.25 33.0781V54.75C18.25 59.5902 20.1728 64.2322 23.5953 67.6547C27.0178 71.0772 31.6598 73 36.5 73C41.3402 73 45.9822 71.0772 49.4047 67.6547C52.8272 64.2322 54.75 59.5902 54.75 54.75V33.0781C54.75 29.93 52.195 27.375 49.0469 27.375H23.9531ZM22.8125 33.0781C22.8125 32.7756 22.9327 32.4855 23.1466 32.2716C23.3605 32.0577 23.6506 31.9375 23.9531 31.9375H49.0469C49.3494 31.9375 49.6395 32.0577 49.8534 32.2716C50.0673 32.4855 50.1875 32.7756 50.1875 33.0781V54.75C50.1875 58.3801 48.7454 61.8616 46.1785 64.4285C43.6116 66.9954 40.1301 68.4375 36.5 68.4375C32.8699 68.4375 29.3884 66.9954 26.8215 64.4285C24.2546 61.8616 22.8125 58.3801 22.8125 54.75V33.0781Z" fill="currentColor"/>
</svg>

