<svg width="73" height="74" viewBox="0 0 73 74" fill="none" xmlns="http://www.w3.org/2000/svg">
<path d="M3.31818 62.2273C3.31818 57.7668 5.06614 53.489 8.17754 50.335C11.2889 47.181 15.5089 45.4091 19.9091 45.4091H53.0909C57.4911 45.4091 61.711 47.181 64.8224 50.335C67.9338 53.489 69.6818 57.7668 69.6818 62.2273C69.6818 64.4575 68.8078 66.5964 67.2521 68.1734C65.6964 69.7504 63.5865 70.6364 61.3864 70.6364H11.6136C9.41354 70.6364 7.30356 69.7504 5.74786 68.1734C4.19216 66.5964 3.31818 64.4575 3.31818 62.2273Z" stroke="currentColor" stroke-width="5" stroke-linejoin="round"/>
<path d="M36.5 28.5909C43.3722 28.5909 48.9432 22.9436 48.9432 15.9773C48.9432 9.01096 43.3722 3.36364 36.5 3.36364C29.6278 3.36364 24.0568 9.01096 24.0568 15.9773C24.0568 22.9436 29.6278 28.5909 36.5 28.5909Z" stroke="currentColor" stroke-width="5"/>
</svg>

